# xmcd
#
# Track frame offsets:
#	150
#	40292
#	52971
#	64580
#	80435
#	107134
#	119336
#	137979
#	154043
#	166277
#	180217
#	196239
#	205825
#	218692
#	228534
#	238246
#	251133
#	285933
#	303116
#	313716
#
# Disc length: 4429 seconds
#
# Revision: 0
# Processed by: cddbd v1.5.1PL0 Copyright (c) Steve Scherf et al.
# Submitted via: dBpowerAMP V4.0
#
DISCID=12114b14
DTITLE=Various Artist - Blues 4 (Los 100 mejores temas
DYEAR=1900
DGENRE=
TTITLE0=Jimmi Hendrix - Red House
TTITLE1=Muddy Waters - Mannish Boy
TTITLE2=Jimmy Reed - Bring lights, Bring City
TTITLE3=Albert King - Get out of my life woman
TTITLE4=Big Mamma Thornton - Ball and Chain
TTITLE5=Elmore James - The sky is crying
TTITLE6=Albert King and John Lee Hooker - One Bourbon, One Scotch, One Beer
TTITLE7=Howlin' Wolf - Sittin'on top of the world
TTITLE8=Johnny Winter - Good morning little school girl
TTITLE9=Memphis Slim - Trouble in my mind
TTITLE10=B.B. King - The other night blues
TTITLE11=Dale Hawkins - Susy Q
TTITLE12=Brownie Mc Ghee - The blue have a baby
TTITLE13=John Lee Hooker - Dimples
TTITLE14=John Mayall - I'm your witch doctor
TTITLE15=Bo Diddley - You can't judge a book for a cover
TTITLE16=Joe Cocker - St. James infirmary
TTITLE17=Eric Clapton - They call it stormy monday
TTITLE18=Sonny Boy Williamson - Fattering frogs for snakes
TTITLE19=a Tribute to Leadbelly - Burgeois blues
EXTD=
EXTT0=
EXTT1=
EXTT2=
EXTT3=
EXTT4=
EXTT5=
EXTT6=
EXTT7=
EXTT8=
EXTT9=
EXTT10=
EXTT11=
EXTT12=
EXTT13=
EXTT14=
EXTT15=
EXTT16=
EXTT17=
EXTT18=
EXTT19=
PLAYORDER=
